<svg xmlns="http://www.w3.org/2000/svg" viewBox="0 0 512 512"><defs><radialGradient id="g" cx="50%" cy="45%"><stop offset="0" stop-color="#fff"/><stop offset="1" stop-color="#f3ead0"/></radialGradient><linearGradient id="gold" x1="0" y1="0" x2="1" y2="1"><stop stop-color="#f7d56b"/><stop offset=".45" stop-color="#b98012"/><stop offset="1" stop-color="#f1c84f"/></linearGradient><clipPath id="c"><circle cx="256" cy="256" r="222"/></clipPath></defs><circle cx="256" cy="256" r="248" fill="#fff"/><circle cx="256" cy="256" r="239" fill="url(#gold)"/><g clip-path="url(#c)" opacity=".96"><path d="M256 256L256 34A222 222 0 0 1 367 64Z" fill="#6f9b55"/><path d="M256 256L367 64A222 222 0 0 1 444 145Z" fill="#75a9d1"/><path d="M256 256L444 145A222 222 0 0 1 478 256Z" fill="#e7bd4c"/><path d="M256 256L478 256A222 222 0 0 1 444 367Z" fill="#c68a38"/><path d="M256 256L444 367A222 222 0 0 1 367 448Z" fill="#6e9c67"/><path d="M256 256L367 448A222 222 0 0 1 256 478Z" fill="#d9a43c"/><path d="M256 256L256 478A222 222 0 0 1 145 448Z" fill="#7896b7"/><path d="M256 256L145 448A222 222 0 0 1 68 367Z" fill="#80a86a"/><path d="M256 256L68 367A222 222 0 0 1 34 256Z" fill="#d6a73f"/><path d="M256 256L34 256A222 222 0 0 1 68 145Z" fill="#7fa9c7"/><path d="M256 256L68 145A222 222 0 0 1 145 64Z" fill="#7ba05c"/><path d="M256 256L145 64A222 222 0 0 1 256 34Z" fill="#d8a73d"/></g><circle cx="256" cy="256" r="116" fill="url(#g)" stroke="#bd8618" stroke-width="10"/><path d="M207 198c-18-27-2-57 20-63 11-3 22 3 29 13 7-10 18-16 29-13 22 6 38 36 20 63l-49 69z" fill="#16814b"/><ellipse cx="303" cy="205" rx="35" ry="48" fill="#df2b2f"/><path d="M190 278h132" stroke="#2266a0" stroke-width="9" stroke-linecap="round"/><text x="256" y="333" text-anchor="middle" font-family="Arial,Helvetica,sans-serif" font-size="64" font-weight="900" letter-spacing="2" fill="#2266a0">DXN</text><circle cx="256" cy="256" r="226" fill="none" stroke="#fff" stroke-opacity=".7" stroke-width="5"/></svg>